<svg xmlns="http://www.w3.org/2000/svg" version="1.1" xmlns:xlink="http://www.w3.org/1999/xlink" xmlns:svgjs="http://svgjs.dev/svgjs" width="1000" height="1000" viewBox="0 0 1000 1000"><rect width="1000" height="1000" fill="#000000"></rect><g transform="matrix(0.7,0,0,0.7,149.57575757575756,319.50210806141143)"><svg viewBox="0 0 396 204" data-background-color="#282634" preserveAspectRatio="xMidYMid meet" height="515" width="1000" xmlns="http://www.w3.org/2000/svg" xmlns:xlink="http://www.w3.org/1999/xlink"><g id="tight-bounds" transform="matrix(1,0,0,1,0.2400000000000091,0.14027726899324477)"><svg viewBox="0 0 395.52 203.7194454620135" height="203.7194454620135" width="395.52"><g><svg viewBox="0 0 397.49759999999986 204.73804268932352" height="203.7194454620135" width="395.52"><g><rect width="397.49759999999986" height="4.061142438505625" x="0" y="97.17384721980835" fill="#ffffff" opacity="1" stroke-width="0" stroke="transparent" fill-opacity="1" class="rect-o-0" data-fill-palette-color="primary" rx="1%" id="o-0" data-palette-color="#ff4057"></rect></g><g><rect width="397.49759999999986" height="4.061142438505625" x="0" y="106.55062112232658" fill="#ffffff" opacity="1" stroke-width="0" stroke="transparent" fill-opacity="1" class="rect-o-1" data-fill-palette-color="primary" rx="1%" id="o-1" data-palette-color="#ff4057"></rect></g><g transform="matrix(1,0,0,1,0.9887999999999693,121.2430264888574)"><svg viewBox="0 0 395.5199999999999 83.49501620046613" height="83.49501620046613" width="395.5199999999999"><g><svg viewBox="0 0 395.5199999999999 83.49501620046613" height="83.49501620046613" width="395.5199999999999"><g><svg viewBox="0 0 395.5199999999999 45.03322204724409" height="45.03322204724409" width="395.5199999999999"><g transform="matrix(1,0,0,1,0,0)"><svg width="395.5199999999999" viewBox="3.799999952316284 -35.70000076293945 317.4800109863281 36.150001525878906" height="45.03322204724409" data-palette-color="#ff4057"><path d="M25.5-18.2Q28.55-17.35 30.23-15.1 31.9-12.85 31.9-9.6L31.9-9.6Q31.9-5.1 28.68-2.55 25.45 0 19.8 0L19.8 0 3.8 0 3.8-35.25 19.3-35.25Q24.8-35.25 27.93-32.83 31.05-30.4 31.05-26.05L31.05-26.05Q31.05-23.25 29.58-21.2 28.1-19.15 25.5-18.2L25.5-18.2ZM10.1-30.25L10.1-20.4 18.25-20.4Q24.9-20.4 24.9-25.35L24.9-25.35Q24.9-27.85 23.25-29.05 21.6-30.25 18.25-30.25L18.25-30.25 10.1-30.25ZM19.1-5Q22.6-5 24.2-6.25 25.8-7.5 25.8-10.15L25.8-10.15Q25.8-12.8 24.18-14.1 22.55-15.4 19.1-15.4L19.1-15.4 10.1-15.4 10.1-5 19.1-5ZM71.15 0L64.75 0 61.2-8.25 44.05-8.25 40.5 0 34 0 49.95-35.25 55.2-35.25 71.15 0ZM52.6-28.25L46.15-13.25 59.05-13.25 52.6-28.25ZM86.44 0.45Q82.39 0.45 78.84-0.65 75.29-1.75 72.84-3.75L72.84-3.75 74.99-8.45Q77.54-6.5 80.37-5.6 83.19-4.7 86.49-4.7L86.49-4.7Q90.14-4.7 92.12-5.98 94.09-7.25 94.09-9.55L94.09-9.55Q94.09-11.55 92.27-12.6 90.44-13.65 86.19-14.6L86.19-14.6Q81.79-15.55 79.04-16.8 76.29-18.05 74.89-20 73.49-21.95 73.49-24.95L73.49-24.95Q73.49-28.05 75.19-30.5 76.89-32.95 79.99-34.33 83.09-35.7 87.14-35.7L87.14-35.7Q90.84-35.7 94.19-34.58 97.54-33.45 99.69-31.5L99.69-31.5 97.54-26.8Q92.84-30.55 87.14-30.55L87.14-30.55Q83.74-30.55 81.77-29.18 79.79-27.8 79.79-25.35L79.79-25.35Q79.79-23.3 81.54-22.2 83.29-21.1 87.49-20.15L87.49-20.15Q91.94-19.15 94.72-17.93 97.49-16.7 98.97-14.8 100.44-12.9 100.44-10L100.44-10Q100.44-6.85 98.77-4.48 97.09-2.1 93.92-0.83 90.74 0.45 86.44 0.45L86.44 0.45ZM119.19-18.3L137.04 0 129.19 0 112.84-16.4 112.84 0 106.39 0 106.39-35.25 112.84-35.25 112.84-19.5 128.54-35.25 136.24-35.25 119.19-18.3ZM162.99 0L139.39 0 139.39-35.25 162.99-35.25 162.99-30.15 145.69-30.15 145.69-20.45 161.99-20.45 161.99-15.4 145.69-15.4 145.69-5.1 162.99-5.1 162.99 0ZM183.64 0L177.19 0 177.19-29.95 165.69-29.95 165.69-35.25 195.14-35.25 195.14-29.95 183.64-29.95 183.64 0ZM221.24-18.2Q224.29-17.35 225.96-15.1 227.64-12.85 227.64-9.6L227.64-9.6Q227.64-5.1 224.41-2.55 221.19 0 215.54 0L215.54 0 199.54 0 199.54-35.25 215.04-35.25Q220.54-35.25 223.66-32.83 226.79-30.4 226.79-26.05L226.79-26.05Q226.79-23.25 225.31-21.2 223.84-19.15 221.24-18.2L221.24-18.2ZM205.84-30.25L205.84-20.4 213.99-20.4Q220.64-20.4 220.64-25.35L220.64-25.35Q220.64-27.85 218.99-29.05 217.34-30.25 213.99-30.25L213.99-30.25 205.84-30.25ZM214.84-5Q218.34-5 219.94-6.25 221.54-7.5 221.54-10.15L221.54-10.15Q221.54-12.8 219.91-14.1 218.29-15.4 214.84-15.4L214.84-15.4 205.84-15.4 205.84-5 214.84-5ZM266.88 0L260.48 0 256.93-8.25 239.78-8.25 236.23 0 229.73 0 245.68-35.25 250.93-35.25 266.88 0ZM248.33-28.25L241.88-13.25 254.78-13.25 248.33-28.25ZM293.53 0L270.63 0 270.63-35.25 277.08-35.25 277.08-5.3 293.53-5.3 293.53 0ZM321.28 0L298.38 0 298.38-35.25 304.83-35.25 304.83-5.3 321.28-5.3 321.28 0Z" opacity="1" transform="matrix(1,0,0,1,0,0)" fill="#ffffff" class="undefined-text-0" data-fill-palette-color="primary" id="text-0"></path></svg></g></svg></g><g transform="matrix(1,0,0,1,121.11618177060916,55.66448497526928)"><svg viewBox="0 0 153.2876364587816 27.830531225196847" height="27.830531225196847" width="153.2876364587816"><g transform="matrix(1,0,0,1,0,0)"><svg width="153.2876364587816" viewBox="4 -37.5 209.27999877929688 38" height="27.830531225196847" data-palette-color="#dcdcdc"><path d="M17.2 0L4 0 4-35 15.05-35Q19.75-35 22.43-32.89 25.1-30.78 25.1-26.45L25.1-26.45Q25.1-23.53 23.83-21.3 22.55-19.07 20-18.4L20-18.4 20.7-19.2Q24.35-18.6 26.35-16.29 28.35-13.98 28.35-10L28.35-10Q28.35-5.4 25.39-2.7 22.43 0 17.2 0L17.2 0ZM8.75-16.15L8.75-4.3 16.8-4.3Q19.7-4.3 21.43-5.75 23.15-7.2 23.15-10.15L23.15-10.15Q23.15-13.45 21.39-14.8 19.63-16.15 16.8-16.15L16.8-16.15 8.75-16.15ZM8.75-30.75L8.75-20.45 14.45-20.45Q17-20.45 18.6-21.48 20.2-22.5 20.2-25.6L20.2-25.6Q20.2-28.68 18.6-29.71 17-30.75 14.45-30.75L14.45-30.75 8.75-30.75ZM38.6 0.5L38.6 0.5Q36.32 0.5 34.62-0.43 32.92-1.35 31.98-2.95 31.05-4.55 31.05-6.6L31.05-6.6Q31.05-8.68 31.96-10.16 32.87-11.65 34.41-12.64 35.95-13.63 37.85-14.21 39.75-14.8 41.78-15.06 43.82-15.33 45.7-15.35L45.7-15.35Q45.7-18.85 44.32-19.93 42.95-21 40.35-21L40.35-21Q38.97-21 37.41-20.58 35.85-20.15 33.9-18.8L33.9-18.8 33.25-22.45Q34.72-23.58 36.92-24.29 39.12-25 41.55-25L41.55-25Q44.65-25 46.55-23.91 48.45-22.83 49.32-20.25 50.2-17.68 50.2-13.25L50.2-13.25 50.2-8.25Q50.2-6.5 50.36-5.36 50.52-4.23 51.11-3.66 51.7-3.1 53-3.1L53-3.1 53.45-3.1 52.75 0.5 52.4 0.5Q50.22 0.5 49.03 0.08 47.85-0.35 47.22-1.15 46.6-1.95 46.1-3.1L46.1-3.1Q44.72-1.5 42.85-0.5 40.97 0.5 38.6 0.5ZM39.45-3.1L39.45-3.1Q41.25-3.1 42.94-4 44.62-4.9 45.7-6.4L45.7-6.4 45.7-12.25Q42.12-12.13 39.91-11.55 37.7-10.98 36.67-9.83 35.65-8.68 35.65-6.85L35.65-6.85Q35.65-4.88 36.71-3.99 37.77-3.1 39.45-3.1ZM63.84 0.5L63.84 0.5Q60.59 0.5 58.46-0.28 56.32-1.05 55.45-1.65L55.45-1.65 55.99-6Q56.8-5.3 58.82-4.4 60.84-3.5 63.64-3.5L63.64-3.5Q66.02-3.5 67.28-4.3 68.55-5.1 68.55-6.55L68.55-6.55Q68.55-7.83 67.73-8.61 66.92-9.4 65.78-9.86 64.64-10.33 63.64-10.6L63.64-10.6Q61.97-11.05 60.18-11.74 58.39-12.43 57.17-13.8 55.95-15.18 55.95-17.65L55.95-17.65Q55.95-19.53 56.84-21.21 57.74-22.9 59.77-23.95 61.8-25 65.14-25L65.14-25Q67.59-25 69.13-24.49 70.67-23.98 71.8-23.4L71.8-23.4 71.25-19.3Q70.17-20.2 68.75-20.83 67.32-21.45 65.25-21.45L65.25-21.45Q63.14-21.45 61.82-20.66 60.49-19.88 60.49-18.15L60.49-18.15Q60.49-16.43 61.91-15.7 63.32-14.98 66.19-14.1L66.19-14.1Q67.09-13.85 68.28-13.38 69.47-12.9 70.59-12.1 71.72-11.3 72.46-10.01 73.19-8.72 73.19-6.8L73.19-6.8Q73.19-5.18 72.42-3.49 71.64-1.8 69.62-0.65 67.59 0.5 63.84 0.5ZM82.04 0L77.54 0 77.54-37.5 82.04-37.5 82.04-13.45 91.04-24.5 96.54-24.5 86.79-13.1 96.79 0 91.29 0 82.04-12.45 82.04 0ZM110.64 0.5L110.64 0.5Q106.32 0.5 103.37-1.28 100.42-3.05 98.9-5.99 97.39-8.93 97.39-12.45L97.39-12.45Q97.39-15.88 98.8-18.73 100.22-21.58 102.9-23.29 105.59-25 109.39-25L109.39-25Q112.44-25 114.83-23.79 117.22-22.58 118.58-20.26 119.94-17.95 119.94-14.65L119.94-14.65Q119.94-14.13 119.9-13.51 119.87-12.9 119.74-12.25L119.74-12.25 101.99-12.25Q102.32-8.85 103.62-6.95 104.92-5.05 106.89-4.28 108.87-3.5 111.19-3.5L111.19-3.5Q112.89-3.5 114.74-3.85 116.59-4.2 118.24-4.95L118.24-4.95 118.84-1.4Q117.42-0.78 115.37-0.14 113.32 0.5 110.64 0.5ZM102.39-15.35L102.39-15.35 115.29-15.35Q115.29-17.07 114.64-18.35 113.99-19.63 112.67-20.31 111.34-21 109.29-21L109.29-21Q106.29-21 104.68-19.51 103.07-18.03 102.39-15.35ZM136.99 0.5L132.94 0.5Q130.61 0.5 129.21-0.35 127.81-1.2 127.18-2.54 126.54-3.88 126.54-5.35L126.54-5.35 126.54-21 122.34-21 122.74-24.5 126.54-24.5 126.54-30.55 131.04-31 131.04-24.5 137.49-24.5 137.49-21 131.04-21 131.04-8.1Q131.04-5.75 131.31-4.7 131.59-3.65 132.68-3.38 133.76-3.1 136.19-3.1L136.19-3.1 137.34-3.1 136.99 0.5ZM153.39 0.5L153.39 0.5Q150.81 0.5 148.4-0.74 145.99-1.98 145.04-4.4L145.04-4.4 146.14-5.2 145.29 0 141.29 0 141.29-37.5 145.79-37.5 145.79-19.7 144.84-20.4Q146.09-22.43 148.41-23.71 150.74-25 153.39-25L153.39-25Q156.81-25 159.29-23.21 161.76-21.43 163.1-18.51 164.44-15.6 164.44-12.25L164.44-12.25Q164.44-8.68 162.96-5.79 161.49-2.9 158.99-1.2 156.49 0.5 153.39 0.5ZM152.84-3.5L152.84-3.5Q154.99-3.5 156.56-4.69 158.14-5.88 158.99-7.86 159.84-9.85 159.84-12.25L159.84-12.25Q159.84-14.75 158.99-16.73 158.14-18.7 156.56-19.85 154.99-21 152.84-21L152.84-21Q150.91-21 149.25-20.04 147.59-19.07 146.56-17.14 145.54-15.2 145.54-12.25L145.54-12.25Q145.54-9.18 146.56-7.25 147.59-5.33 149.25-4.41 150.91-3.5 152.84-3.5ZM174.78 0.5L174.78 0.5Q172.51 0.5 170.81-0.43 169.11-1.35 168.17-2.95 167.23-4.55 167.23-6.6L167.23-6.6Q167.23-8.68 168.15-10.16 169.06-11.65 170.6-12.64 172.13-13.63 174.03-14.21 175.93-14.8 177.97-15.06 180.01-15.33 181.88-15.35L181.88-15.35Q181.88-18.85 180.51-19.93 179.13-21 176.53-21L176.53-21Q175.16-21 173.6-20.58 172.03-20.15 170.08-18.8L170.08-18.8 169.43-22.45Q170.91-23.58 173.11-24.29 175.31-25 177.73-25L177.73-25Q180.83-25 182.73-23.91 184.63-22.83 185.51-20.25 186.38-17.68 186.38-13.25L186.38-13.25 186.38-8.25Q186.38-6.5 186.55-5.36 186.71-4.23 187.3-3.66 187.88-3.1 189.18-3.1L189.18-3.1 189.63-3.1 188.93 0.5 188.58 0.5Q186.41 0.5 185.22 0.08 184.03-0.35 183.41-1.15 182.78-1.95 182.28-3.1L182.28-3.1Q180.91-1.5 179.03-0.5 177.16 0.5 174.78 0.5ZM175.63-3.1L175.63-3.1Q177.43-3.1 179.12-4 180.81-4.9 181.88-6.4L181.88-6.4 181.88-12.25Q178.31-12.13 176.1-11.55 173.88-10.98 172.86-9.83 171.83-8.68 171.83-6.85L171.83-6.85Q171.83-4.88 172.9-3.99 173.96-3.1 175.63-3.1ZM200.83 0.5L199.38 0.5Q197.01 0.5 195.62-0.36 194.23-1.23 193.63-2.58 193.03-3.93 193.03-5.4L193.03-5.4 193.03-37.5 197.53-37.5 197.53-8Q197.53-5.9 197.81-4.85 198.08-3.8 198.92-3.45 199.76-3.1 201.48-3.1L201.48-3.1 200.83 0.5ZM212.63 0.5L211.18 0.5Q208.8 0.5 207.42-0.36 206.03-1.23 205.43-2.58 204.83-3.93 204.83-5.4L204.83-5.4 204.83-37.5 209.33-37.5 209.33-8Q209.33-5.9 209.6-4.85 209.88-3.8 210.72-3.45 211.55-3.1 213.28-3.1L213.28-3.1 212.63 0.5Z" opacity="1" transform="matrix(1,0,0,1,0,0)" fill="#ffffff" class="undefined-text-1" data-fill-palette-color="secondary" id="text-1"></path></svg></g></svg></g></svg></g></svg></g><g transform="matrix(1,0,0,1,155.47750785410835,0)"><svg viewBox="0 0 86.54258429178316 86.54258429178316" height="86.54258429178316" width="86.54258429178316"><g><svg xmlns="http://www.w3.org/2000/svg" xmlns:xlink="http://www.w3.org/1999/xlink" version="1.1" x="0" y="0" viewBox="3.930999994277954 3.930999994277954 92.13800048828125 92.13800048828125" enable-background="new 0 0 100 100" xml:space="preserve" height="86.54258429178316" width="86.54258429178316" class="icon-icon-0" data-fill-palette-color="accent" id="icon-0"><path fill="#ffffff" d="M85.792 21.038L85.825 21l-1.152-1.317c-0.152-0.175-0.315-0.338-0.471-0.51-0.117-0.13-0.238-0.258-0.357-0.387-0.407-0.441-0.818-0.878-1.241-1.302-0.071-0.071-0.145-0.14-0.216-0.21-1.885-1.865-3.915-3.551-6.064-5.05-0.229-0.16-0.453-0.325-0.686-0.48-0.322-0.217-0.652-0.421-0.979-0.629-0.35-0.223-0.698-0.446-1.055-0.659-0.269-0.161-0.542-0.313-0.815-0.469-0.43-0.246-0.863-0.489-1.302-0.722-0.226-0.119-0.452-0.233-0.679-0.349-0.502-0.254-1.006-0.501-1.518-0.737-0.184-0.085-0.368-0.168-0.554-0.251-0.563-0.252-1.134-0.493-1.708-0.723-0.148-0.059-0.296-0.117-0.443-0.175-0.619-0.239-1.244-0.465-1.875-0.678-0.117-0.04-0.233-0.081-0.352-0.119-0.66-0.218-1.327-0.419-2-0.606-0.098-0.027-0.195-0.057-0.293-0.083-0.687-0.187-1.38-0.356-2.078-0.512-0.092-0.02-0.181-0.043-0.271-0.062-0.695-0.149-1.396-0.281-2.102-0.399-0.099-0.017-0.196-0.037-0.295-0.053-0.684-0.109-1.374-0.201-2.068-0.279-0.12-0.015-0.24-0.033-0.361-0.047-0.669-0.07-1.344-0.121-2.021-0.163-0.142-0.009-0.283-0.025-0.426-0.032C51.634 3.954 50.819 3.931 50 3.931s-1.634 0.023-2.443 0.066c-0.143 0.007-0.284 0.023-0.426 0.032-0.677 0.042-1.352 0.093-2.021 0.163-0.121 0.014-0.241 0.032-0.361 0.047-0.694 0.078-1.385 0.17-2.068 0.279-0.099 0.016-0.196 0.036-0.295 0.053-0.706 0.118-1.406 0.25-2.102 0.399-0.091 0.02-0.18 0.043-0.271 0.062-0.698 0.155-1.392 0.325-2.078 0.512-0.098 0.026-0.195 0.056-0.293 0.083-0.673 0.188-1.34 0.389-2 0.606-0.118 0.038-0.234 0.079-0.352 0.119-0.631 0.213-1.256 0.438-1.875 0.678-0.147 0.058-0.295 0.116-0.443 0.175-0.574 0.229-1.145 0.471-1.708 0.723-0.186 0.083-0.37 0.166-0.554 0.251-0.512 0.236-1.016 0.483-1.518 0.737-0.227 0.115-0.453 0.229-0.679 0.349-0.438 0.232-0.872 0.476-1.302 0.722-0.273 0.155-0.547 0.308-0.815 0.469-0.356 0.213-0.705 0.437-1.055 0.659-0.327 0.208-0.657 0.412-0.979 0.629-0.232 0.155-0.457 0.32-0.686 0.48-2.149 1.499-4.18 3.185-6.064 5.05-0.071 0.07-0.145 0.139-0.216 0.21-0.423 0.424-0.834 0.86-1.241 1.302-0.119 0.129-0.24 0.257-0.357 0.387-0.155 0.172-0.318 0.335-0.471 0.51L14.175 21l0.033 0.038C7.788 28.957 3.931 39.035 3.931 50c0 25.402 20.666 46.069 46.069 46.069S96.069 75.402 96.069 50C96.069 39.035 92.212 28.957 85.792 21.038zM83.286 75.682C75.067 67.087 63.859 62.001 52 61.484v-9.103h39.997C91.507 61.126 88.331 69.159 83.286 75.682zM8.003 52.382H48v9.103c-11.859 0.517-23.067 5.603-31.286 14.197C11.669 69.159 8.493 61.126 8.003 52.382zM20.101 20.44c0.118-0.12 0.238-0.238 0.357-0.357 0.365-0.359 0.735-0.714 1.113-1.061 0.131-0.12 0.264-0.238 0.396-0.357 0.37-0.332 0.746-0.658 1.128-0.978 0.157-0.132 0.318-0.26 0.479-0.389 0.362-0.294 0.728-0.583 1.1-0.865 0.203-0.153 0.409-0.301 0.615-0.45 0.337-0.245 0.674-0.489 1.018-0.725 0.272-0.186 0.55-0.364 0.827-0.543 0.285-0.186 0.569-0.373 0.859-0.553 0.376-0.23 0.758-0.45 1.141-0.67 0.2-0.114 0.398-0.233 0.6-0.346 0.52-0.285 1.044-0.558 1.573-0.82 0.076-0.038 0.15-0.079 0.227-0.116C36.635 9.714 42.232 8.257 48 7.982v26.035c-10.786-0.514-20.977-5.168-28.446-13.004C19.735 20.823 19.915 20.629 20.101 20.44zM68.693 12.327c0.529 0.263 1.054 0.535 1.573 0.82 0.201 0.112 0.399 0.231 0.6 0.346 0.383 0.22 0.765 0.439 1.141 0.67 0.29 0.18 0.574 0.367 0.859 0.553 0.277 0.179 0.555 0.357 0.827 0.543 0.344 0.235 0.681 0.479 1.018 0.725 0.206 0.149 0.412 0.297 0.615 0.45 0.372 0.282 0.737 0.571 1.1 0.865 0.16 0.129 0.321 0.257 0.479 0.389 0.382 0.319 0.758 0.646 1.128 0.978 0.133 0.119 0.266 0.237 0.396 0.357 0.378 0.347 0.748 0.701 1.113 1.061 0.119 0.119 0.239 0.237 0.357 0.357 0.186 0.188 0.365 0.383 0.547 0.573C72.977 28.85 62.786 33.504 52 34.018V7.982c5.768 0.274 11.365 1.731 16.467 4.229C68.543 12.248 68.617 12.289 68.693 12.327zM48 38.016v10.366H7.972c0.349-9.161 3.64-17.575 8.954-24.334C25.124 32.507 36.245 37.504 48 38.016zM48 91.518C37.208 91.003 27.011 86.344 19.54 78.5 27.011 70.656 37.208 65.997 48 65.482V91.518zM52 65.482c10.792 0.515 20.989 5.174 28.46 13.018C72.989 86.344 62.792 91.003 52 91.518V65.482zM52 48.382V38.016c11.755-0.512 22.876-5.509 31.074-13.968 5.314 6.759 8.605 15.173 8.954 24.334H52z" data-fill-palette-color="accent"></path></svg></g></svg></g><g></g></svg></g><defs></defs></svg><rect width="395.52" height="203.7194454620135" fill="none" stroke="none" visibility="hidden"></rect></g></svg></g></svg>